<?xml version="1.0" standalone="no"?><!DOCTYPE svg PUBLIC "-//W3C//DTD SVG 1.1//EN" "http://www.w3.org/Graphics/SVG/1.1/DTD/svg11.dtd"><svg t="1616830973417" class="icon" viewBox="0 0 1024 1024" version="1.1" xmlns="http://www.w3.org/2000/svg" p-id="4334" width="32" height="32" xmlns:xlink="http://www.w3.org/1999/xlink"><defs><style type="text/css"></style></defs><path d="M277.333333 597.333333s-101.12 170.666667-234.666666 170.666667a594.773333 594.773333 0 0 1 42.666666-234.666667 497.066667 497.066667 0 0 1-85.333333-277.333333c123.52 0 277.333333 213.333333 277.333333 213.333333zM789.333333 320L405.333333 533.333333s-85.333333-208.213333-85.333333-362.666666c251.306667 0 469.333333 149.333333 469.333333 149.333333z" fill="#FF9800" p-id="4335"></path><path d="M1024 533.333333l-64 64 42.666667 42.666667c-50.346667 91.093333-167.893333 192-362.666667 192C397.653333 832 170.666667 615.893333 170.666667 533.333333s314.026667-234.666667 490.666666-234.666666a381.44 381.44 0 0 1 362.666667 234.666666z" fill="#FFC107" p-id="4336"></path><path d="M832 532.266667m-85.333333 0a85.333333 85.333333 0 1 0 170.666666 0 85.333333 85.333333 0 1 0-170.666666 0Z" fill="#FFFFFF" p-id="4337"></path><path d="M842.666667 533.333333m-32 0a32 32 0 1 0 64 0 32 32 0 1 0-64 0Z" fill="#FF5722" p-id="4338"></path><path d="M512 746.666667l168.533333 64s-45.226667 106.666667-230.4 106.666666a636.373333 636.373333 0 0 0 61.866667-170.666666zM323.413333 705.706667L405.333333 768a411.52 411.52 0 0 1-128 21.333333 256 256 0 0 0 46.08-83.626666z" fill="#FF9800" p-id="4339"></path></svg>