<?xml version="1.0" standalone="no"?><!DOCTYPE svg PUBLIC "-//W3C//DTD SVG 1.1//EN" "http://www.w3.org/Graphics/SVG/1.1/DTD/svg11.dtd"><svg t="1615366186368" class="icon" viewBox="0 0 1171 1024" version="1.1" xmlns="http://www.w3.org/2000/svg" p-id="14445" xmlns:xlink="http://www.w3.org/1999/xlink" width="54.890625" height="48"><defs><style type="text/css"></style></defs><path d="M82.285038 795.787749l177.735683-83.382172-131.656061-61.439496-46.079622 144.821668z" fill="#13227a" p-id="14446" data-spm-anchor-id="a313x.7781069.0.i10" class="selected"></path><path d="M1087.625352 916.106761A273.552039 273.552039 0 0 0 1170.276101 723.376915c0-165.667211-157.621562-299.883251-352.179964-299.883251s-351.814253 134.21604-351.814253 299.883251S623.903447 1023.991589 818.096137 1023.991589a393.87105 393.87105 0 0 0 194.192691-49.736735L1133.704973 1023.991589z m-511.995795-192.729846c0-104.959138 109.713384-190.169866 242.100869-190.169866S1060.562717 618.417777 1060.562717 723.376915 950.849332 914.278204 818.096137 914.278204s-242.100868-85.942151-242.100868-190.901289z" fill="#4C4A58" p-id="14447"></path><path d="M724.474049 660.840286m-43.885354 0a43.885354 43.885354 0 1 0 87.770708 0 43.885354 43.885354 0 1 0-87.770708 0Z" fill="#4C4A58" p-id="14448"></path><path d="M915.741049 660.840286m-43.885354 0a43.885354 43.885354 0 1 0 87.770708 0 43.885354 43.885354 0 1 0-87.770708 0Z" fill="#4C4A58" p-id="14449"></path><path d="M574.898135 305.003209m-54.856692 0a54.856692 54.856692 0 1 0 109.713384 0 54.856692 54.856692 0 1 0-109.713384 0Z" fill="#13227a" p-id="14450" data-spm-anchor-id="a313x.7781069.0.i9" class="selected"></path><path d="M356.934211 305.003209m-54.856692 0a54.856692 54.856692 0 1 0 109.713384 0 54.856692 54.856692 0 1 0-109.713384 0Z" fill="#13227a" p-id="14451" data-spm-anchor-id="a313x.7781069.0.i8" class="selected"></path><path d="M429.710756 723.376915a343.402893 343.402893 0 0 1 3.291401-43.519642C251.975073 666.691666 109.713384 544.178387 109.713384 395.333895 109.713384 238.078044 269.529215 109.713384 465.916173 109.713384s349.985697 123.610413 355.837077 277.209152a448.727743 448.727743 0 0 1 109.713384 14.628451 36.571128 36.571128 0 0 0 0-6.217092c0-219.426769-208.455431-395.333895-465.916172-395.333895S0 177.00426 0 395.333895c0 210.283987 193.461268 381.802578 438.853538 394.236762a282.694821 282.694821 0 0 1-9.142782-66.193742z" fill="#13227a" p-id="14452" data-spm-anchor-id="a313x.7781069.0.i7" class="selected"></path></svg>