<?xml version="1.0" standalone="no"?><!DOCTYPE svg PUBLIC "-//W3C//DTD SVG 1.1//EN" "http://www.w3.org/Graphics/SVG/1.1/DTD/svg11.dtd"><svg t="1615538601651" class="icon" viewBox="0 0 1024 1024" version="1.1" xmlns="http://www.w3.org/2000/svg" p-id="9711" xmlns:xlink="http://www.w3.org/1999/xlink" width="64" height="64"><defs><style type="text/css"></style></defs><path d="M512 512m-512 0a512 512 0 1 0 1024 0 512 512 0 1 0-1024 0Z" fill="#5FBD76" p-id="9712"></path><path d="M768 204.8H409.6c-28.16 0-51.2 23.04-51.2 51.2v32c0 10.24 8.96 19.2 19.2 19.2H614.4c56.32 0 102.4 46.08 102.4 102.4v236.8c0 10.24 8.96 19.2 19.2 19.2H768c28.16 0 51.2-23.04 51.2-51.2V256c0-28.16-23.04-51.2-51.2-51.2z" fill="#FFFFFF" p-id="9713"></path><path d="M614.4 358.4H256c-28.16 0-51.2 23.04-51.2 51.2v358.4c0 28.16 23.04 51.2 51.2 51.2h358.4c28.16 0 51.2-23.04 51.2-51.2V409.6c0-28.16-23.04-51.2-51.2-51.2z m-51.2 345.6c0 7.68-5.12 12.8-12.8 12.8h-230.4c-7.68 0-12.8-5.12-12.8-12.8v-25.6c0-7.68 5.12-12.8 12.8-12.8h230.4c7.68 0 12.8 5.12 12.8 12.8v25.6z m0-102.4c0 7.68-5.12 12.8-12.8 12.8h-230.4c-7.68 0-12.8-5.12-12.8-12.8v-25.6c0-7.68 5.12-12.8 12.8-12.8h230.4c7.68 0 12.8 5.12 12.8 12.8v25.6z m0-102.4c0 7.68-5.12 12.8-12.8 12.8h-230.4c-7.68 0-12.8-5.12-12.8-12.8v-25.6c0-7.68 5.12-12.8 12.8-12.8h230.4c7.68 0 12.8 5.12 12.8 12.8v25.6z" fill="#FFFFFF" p-id="9714"></path></svg>