<?xml version="1.0" standalone="no"?><!DOCTYPE svg PUBLIC "-//W3C//DTD SVG 1.1//EN" "http://www.w3.org/Graphics/SVG/1.1/DTD/svg11.dtd"><svg t="1615538673655" class="icon" viewBox="0 0 1024 1024" version="1.1" xmlns="http://www.w3.org/2000/svg" p-id="12597" width="48" height="48" xmlns:xlink="http://www.w3.org/1999/xlink"><defs><style type="text/css"></style></defs><path d="M587.922 503.729l2.039 114.656h18.355l-2.267-114.656zM519.492 618.385h18.127l2.265-114.656h-18.353z" fill="#444444" p-id="12598"></path><path d="M584.297 404.483h-39.88v76.588h-26.511v17.221h26.511v121.225h39.88V498.292h26.284v-17.221h-26.284z" fill="#444444" p-id="12599"></path><path d="M587.016 477.445h18.58l4.985-71.15h-18.354zM541.698 477.445l-4.759-71.15h-18.58l5.212 71.15zM697.366 469.967h27.87v-17.22h-27.87v-15.182h33.308v-17.221h-33.308v-15.861h-46.678v15.861h-33.536v17.221h33.536v15.182h-27.644v17.22h27.644v14.955h-35.349v17.222h117.375v-17.222h-35.348zM621.231 619.517h40.107V589.38h25.605v6.572c0 3.625-2.945 6.345-6.118 6.345h-6.797v17.221h32.402c11.33 0 20.393-9.517 20.393-21.526v-86.105H621.231v107.63z m40.107-90.409h25.605v12.689h-25.605v-12.689z m0 29.91h25.605v13.142h-25.605v-13.142zM858.501 455.466h9.516v39.653h-44.185v17.221h14.502l-14.729 79.987h47.585l14.955-79.987h5.891v79.987h66.618v-17.448h-18.127V512.34h18.58v-17.221h-39.88v-39.653h36.028v-16.995h-36.028v-32.402h-51.21v32.402h-8.383l1.359-24.925h-36.481l-4.079 70.696h36.481zM811.37 445.496l-3.173-39.88h-53.702l3.172 39.88z" fill="#444444" p-id="12600"></path><path d="M800.267 601.617l14.501-80.44h-17.447l17.221-63.672h-70.017v18.807h18.807l-16.768 69.79h16.768l-14.502 72.509h210.503v-16.994z" fill="#444444" p-id="12601"></path><path d="M199.035 405.616h-53.929v29.91H64.667v17.221H205.38l-38.068 46.904-31.043-34.669H80.755l60.046 67.072-70.923 87.01h55.515l44.412-54.608 48.944 54.608h55.514l-77.947-87.01 64.352-79.307h18.58v-17.221h-80.213zM499.296 415.812h-73.642v-11.103h-53.928v11.103h-73.643v17.221h201.213zM483.888 440.964h-53.022l-7.478 23.338h-49.623l-7.251-23.338h-53.022l7.025 23.338h-29.231v17.222h214.582v-17.222h-29.23zM425.654 567.855h48.717c12.009 0 21.526-9.743 21.526-21.526V493.08H301.483v74.775h70.243v14.955h-80.44v17.221h80.44v19.487h53.928v-19.487h80.213V582.81h-80.213v-14.955z m-70.923-57.554h87.918v11.783h-87.918v-11.783z m0 40.333v-11.33h87.918v4.985c0 3.626-3.172 6.345-6.571 6.345h-81.347z" fill="#FF5500" p-id="12602"></path></svg>