<?xml version="1.0" standalone="no"?><!DOCTYPE svg PUBLIC "-//W3C//DTD SVG 1.1//EN" "http://www.w3.org/Graphics/SVG/1.1/DTD/svg11.dtd"><svg t="1615538697821" class="icon" viewBox="0 0 1024 1024" version="1.1" xmlns="http://www.w3.org/2000/svg" p-id="12790" width="48" height="48" xmlns:xlink="http://www.w3.org/1999/xlink"><defs><style type="text/css"></style></defs><path d="M862.02 161.98c87.54 85.94 121.77 217.98 122.6 350.02-0.83 132.04-35.06 264.08-122.6 350.02-85.95 87.54-217.98 121.77-350.02 122.6-132.04-0.83-264.08-35.06-350.02-122.6C74.44 776.08 40.21 644.04 39.38 512c0.83-132.04 35.06-264.08 122.6-350.02C247.92 74.44 379.96 40.21 512 39.38c132.04 0.83 264.07 35.06 350.02 122.6z" fill="#FE8D4B" p-id="12791"></path><path d="M325.96 280.05h70.57L379.3 387.82l-7.36 330.3 24.6 66.28h-70.57c-29.62 0-53.73-24.44-53.73-54.47V334.45c-0.02-29.96 24.03-54.4 53.72-54.4z" fill="#FED6C5" p-id="12792"></path><path d="M698.04 280.05H398.32c-29.69 0-53.74 24.44-53.74 54.4v395.48c0 30.02 24.11 54.47 53.74 54.47h299.72c29.69 0 53.74-24.44 53.74-54.4V334.45c0-30.03-24.18-54.4-53.74-54.4z m-149.86 80.61c22.65 0 41 18.36 41 41s-18.36 41-41 41c-22.65 0-41-18.36-41-41s18.35-41 41-41z m144.73 335.63H403.45c-11.86 0-20.8-9.06-20.8-21.07-0.04-5.72 2.04-11.04 5.88-14.95 3.87-3.95 9.16-6.12 14.92-6.12h289.46c11.86 0 20.8 9.06 20.8 21.07s-8.95 21.07-20.8 21.07z m0-90.21H403.45c-11.86 0-20.8-9.06-20.8-21.07-0.04-5.72 2.04-11.04 5.88-14.95 3.87-3.95 9.16-6.12 14.92-6.12h289.46c11.86 0 20.8 9.06 20.8 21.07s-8.95 21.07-20.8 21.07z m0-84.26H403.45c-11.86 0-20.8-9.06-20.8-21.07s8.94-21.07 20.8-21.07h289.46c11.86 0 20.8 9.06 20.8 21.07 0 12.02-8.95 21.07-20.8 21.07z" fill="#FFFFFF" p-id="12793"></path><path d="M299.34 777.21l-0.01 0.01 0.15 0.07c-0.04-0.03-0.09-0.05-0.14-0.08zM983.14 468.97l-3.61-35.84-250.76-143.27-0.01 0.01c13.88 9.84 23.01 26.14 23.01 44.58V730c0 29.95-24.05 54.4-53.74 54.4H398.32c-0.6 0-1.2-0.03-1.8-0.05l0.02 0.05h-70.57c-6.43 0-12.59-1.15-18.31-3.26l381.4 179.39c66.3-19.3 126.4-51.07 172.96-98.5 87.54-85.94 121.77-217.98 122.6-350.02-0.09-14.37-0.58-28.74-1.48-43.04z" fill="#F9622B" p-id="12794"></path></svg>