<?xml version="1.0" standalone="no"?><!DOCTYPE svg PUBLIC "-//W3C//DTD SVG 1.1//EN" "http://www.w3.org/Graphics/SVG/1.1/DTD/svg11.dtd"><svg t="1615538551516" class="icon" viewBox="0 0 1024 1024" version="1.1" xmlns="http://www.w3.org/2000/svg" p-id="8834" width="64" height="64" xmlns:xlink="http://www.w3.org/1999/xlink"><defs><style type="text/css"></style></defs><path d="M512 512m-512 0a512 512 0 1 0 1024 0 512 512 0 1 0-1024 0Z" fill="#2C68FF" fill-opacity=".149" p-id="8835"></path><path d="M696.124235 384.677647L768 504.470588v23.94353h-71.875765v-143.736471z m-383.307294 0L240.941176 494.411294v34.017882h71.875765v-143.751529z" fill="#9FAFD5" p-id="8836"></path><path d="M632.109176 576.346353H376.741647c-8.794353 0-16.007529-14.998588-16.007529-33.460706V274.371765c0-18.447059 7.122824-33.445647 16.007529-33.445647h255.457882c8.794353 0 16.007529 14.998588 16.00753 33.460706v268.288c-0.090353 18.657882-7.228235 33.656471-16.097883 33.65647z" fill="#C7D3F4" p-id="8837"></path><path d="M674.665412 600.304941H334.155294c-11.700706 0-21.338353-13.929412-21.338353-31.066353V319.924706c0-17.136941 9.502118-31.066353 21.338353-31.066353h340.630588c11.700706 0 21.338353 13.929412 21.338353 31.066353v249.118118c-0.120471 17.317647-9.637647 31.262118-21.458823 31.262117z" fill="#FFFFFF" p-id="8838"></path><path d="M669.048471 510.494118v47.344941c0 16.534588-9.833412 29.967059-21.925647 29.967059H361.562353c-12.092235 0-21.910588-13.432471-21.910588-29.967059v-47.36c0-16.519529-9.833412-29.967059-21.910589-29.967059h-54.874352c-12.077176 0-21.910588 13.447529-21.910589 29.967059v227.538823c0 16.534588 9.833412 29.982118 21.910589 29.982118h483.237647c12.077176 0 21.910588-13.447529 21.910588-29.967059V510.494118c0-16.534588-9.833412-29.967059-21.910588-29.967059h-54.859295c-12.348235-0.195765-22.181647 13.251765-22.181647 29.967059z" fill="#2C68FF" p-id="8839"></path><path d="M391.529412 376.470588m15.058823 0l90.352941 0q15.058824 0 15.058824 15.058824l0 0q0 15.058824-15.058824 15.058823l-90.352941 0q-15.058824 0-15.058823-15.058823l0 0q0-15.058824 15.058823-15.058824Z" fill="#D0D6E4" p-id="8840"></path><path d="M391.529412 466.823529m15.058823 0l195.764706 0q15.058824 0 15.058824 15.058824l0 0q0 15.058824-15.058824 15.058823l-195.764706 0q-15.058824 0-15.058823-15.058823l0 0q0-15.058824 15.058823-15.058824Z" fill="#D0D6E4" p-id="8841"></path></svg>