<?xml version="1.0" standalone="no"?><!DOCTYPE svg PUBLIC "-//W3C//DTD SVG 1.1//EN" "http://www.w3.org/Graphics/SVG/1.1/DTD/svg11.dtd"><svg t="1615538503369" class="icon" viewBox="0 0 1024 1024" version="1.1" xmlns="http://www.w3.org/2000/svg" p-id="7763" width="64" height="64" xmlns:xlink="http://www.w3.org/1999/xlink"><defs><style type="text/css"></style></defs><path d="M810.549036 330.306813H932.731931c49.050726 0 88.784109 39.444086 88.784109 88.085807v500.981792c0 57.769525-47.245117 104.585685-105.503453 104.575709s-105.453575-46.826136-105.463551-104.575709z" fill="#08979C" p-id="7764"></path><path d="M0 88.085807C0 39.43411 39.773286 0 88.784109 0h649.620357c49.060702 0 88.784109 39.43411 88.784109 88.085807v831.168896c0 57.859307 47.28502 104.745297 105.613186 104.745297H88.784109c-49.050726 0-88.784109-39.43411-88.784109-88.085807z" fill="#36CFC9" p-id="7765"></path><path d="M166.594901 176.161638h133.196115q44.412006 0 44.412006 44.042904V352.363179q0 44.032928-44.412006 44.042904H166.594901q-44.412006 0-44.421982-44.042904V220.204542q-0.039903-44.032928 44.421982-44.042904zM466.346014 187.174858h177.658q33.309004 0 33.309004 33.029684 0 33.039659-33.309004 33.029683H466.346014q-33.309004 0-33.309004-33.029683t33.309004-33.029684zM466.346014 330.306813h177.658Q677.352921 330.306813 677.352921 363.336496t-33.309004 33.029684H466.346014q-33.309004 0-33.309004-33.029684t33.309004-33.029683zM155.451997 616.580697h488.552017Q677.352921 616.580697 677.352921 649.640308q0 33.039659-33.309004 33.03966H155.451997q-33.309004 0-33.318981-33.03966 0-33.049635 33.318981-33.059611zM155.451997 473.448743h488.552017q33.309004 0 33.309004 33.029683 0 33.039659-33.309004 33.029684H155.451997q-33.309004 0-33.318981-33.029684 0-33.019708 33.318981-33.029683z" fill="#B5F5EC" p-id="7766"></path></svg>